<?xml version="1.0" encoding="utf-8"?>
<!-- Generator: Adobe Illustrator 25.0.1, SVG Export Plug-In . SVG Version: 6.00 Build 0)  -->
<svg version="1.1" id="Layer_1" xmlns="http://www.w3.org/2000/svg" xmlns:xlink="http://www.w3.org/1999/xlink" x="0px" y="0px"
	 viewBox="0 0 250 150" style="enable-background:new 0 0 250 150;" xml:space="preserve">
<style type="text/css">
	.st0{fill:#FFFFFF;}
</style>
<path class="st0" d="M7.9,25.2h234.3c0.6,0,1,0.4,1,1s-0.4,1-1,1H7.9c-0.6,0-1-0.4-1-1S7.4,25.2,7.9,25.2z"/>
<path class="st0" d="M217.7,65.7h23.9v3.5h-24.4c-5.2,0-7.7-2.2-7.7-6.9c0-3.7,1.6-6,5.3-7.6l21-9c1.9-0.8,3-2.4,3-4.4
	c0-2.5-1.8-4.2-4.6-4.2h-23.4v-3.5h23.8c5.2,0,7.8,2.3,7.8,6.9c0,3.7-1.6,6-5.2,7.6l-21.1,9c-1.8,0.8-2.9,2.4-2.9,4.4
	C213.2,64.1,215,65.7,217.7,65.7z"/>
<path class="st0" d="M52.1,43.4c0-6.6,4.4-10.2,12.4-10.2h18.3v7.2H64.5c-3.2,0-4.9,1.3-4.9,4c0,1.6,0.5,3.7,4.9,3.7h18v6.6H64.3
	c-3.3,0-4.9,1.2-4.9,3.8c0,2.6,1.6,4,4.9,4h18.5v7.2H64.3C56.5,69.7,52,66,52,59.6c0-3.8,1.5-6.6,4.4-8.2
	C53.6,49.9,52.1,47.1,52.1,43.4z"/>
<path class="st0" d="M45.8,33.2v28.9c0,5.3-3.2,8.3-8.7,8.3c-4.7,0-7.4-2.1-9.2-6.9L17.7,40.8c-0.4-0.9-0.9-1.2-1.8-1.2
	c-1.1,0-1.7,0.5-1.7,1.6v28.6H7.1V40.8c0-5.2,3.2-8.2,8.7-8.2c5.8,0,7.9,3.5,9.1,6.9l10.4,22.6c0.4,0.8,1,1.2,1.8,1.2
	c1,0,1.6-0.5,1.6-1.5V33.2H45.8z"/>
<path class="st0" d="M85.5,84.1c0,0.6-0.4,1-1,1s-1-0.4-1-1v-8.9H6.9c-0.6,0-1-0.4-1-1s0.4-1,1-1h77.6c0.6,0,1,0.4,1,1V84.1z"/>
<path class="st0" d="M89.5,88.1c0,0.6-0.4,1-1,1s-1-0.4-1-1v-5.5c0-0.6,0.4-1,1-1s1,0.4,1,1V88.1z"/>
<path class="st0" d="M97.6,96.2c0,0.6-0.4,1-1,1c-0.6,0-1-0.4-1-1V85.6c0-0.6,0.4-1,1-1c0.6,0,1,0.4,1,1V96.2z"/>
<path class="st0" d="M101.7,100.3c0,0.6-0.4,1-1,1s-1-0.4-1-1v-3.6c0-0.6,0.4-1,1-1s1,0.4,1,1V100.3z"/>
<path class="st0" d="M101.7,83.7c0,0.6-0.4,1-1,1s-1-0.4-1-1v-9.6c0-0.6,0.4-1,1-1s1,0.4,1,1V83.7z"/>
<path class="st0" d="M105.7,93.1v11.2c0,0.6-0.4,1-1,1s-1-0.4-1-1V93.1V79.2c0-0.6,0.4-1,1-1s1,0.4,1,1V93.1z"/>
<path class="st0" d="M109.8,108.4c0,0.6-0.4,1-1,1s-1-0.4-1-1V94.9c0-0.6,0.4-1,1-1s1,0.4,1,1V108.4z"/>
<path class="st0" d="M109.8,86c0,0.6-0.4,1-1,1s-1-0.4-1-1v-8.9c0-0.6,0.4-1,1-1s1,0.4,1,1V86z"/>
<path class="st0" d="M113.8,112.5c0,0.6-0.4,1-1,1s-1-0.4-1-1V89c0-0.6,0.4-1,1-1s1,0.4,1,1V112.5z"/>
<path class="st0" d="M117.9,91.4c0,0.6-0.4,1-1,1s-1-0.4-1-1V78.2c0-0.6,0.4-1,1-1s1,0.4,1,1V91.4z"/>
<path class="st0" d="M121.9,106.6c0,0.6-0.4,1-1,1s-1-0.4-1-1V80.2c0-0.6,0.4-1,1-1s1,0.4,1,1V106.6z"/>
<path class="st0" d="M126,124.6c0,0.6-0.4,1-1,1s-1-0.4-1-1V74.1c0-0.6,0.4-1,1-1s1,0.4,1,1V124.6z"/>
<polygon class="st0" points="118.4,69.7 106.8,55.9 94.9,69.7 85.9,69.7 102.3,50.7 87.4,33.2 96.3,33.2 107,46.1 118.2,33.2 
	127.2,33.2 111.5,51.2 127.3,69.7 "/>
<path class="st0" d="M130,120.6c0,0.6-0.4,1-1,1s-1-0.4-1-1v-15.8c0-0.6,0.4-1,1-1s1,0.4,1,1V120.6z"/>
<path class="st0" d="M130,93.9c0,0.6-0.4,1-1,1s-1-0.4-1-1V74.1c0-0.6,0.4-1,1-1s1,0.4,1,1V93.9z"/>
<path class="st0" d="M134.1,100.8c0,0.6-0.4,1-1,1s-1-0.4-1-1V74.1c0-0.6,0.4-1,1-1s1,0.4,1,1V100.8z"/>
<path class="st0" d="M138.1,112.5c0,0.6-0.4,1-1,1s-1-0.4-1-1V85.6c0-0.6,0.4-1,1-1s1,0.4,1,1V112.5z"/>
<path class="st0" d="M142.2,96v12.4c0,0.6-0.4,1-1,1s-1-0.4-1-1V96v-6.9c0-0.6,0.4-1,1-1s1,0.4,1,1V96z"/>
<path class="st0" d="M142.2,85.4c0,0.6-0.4,1-1,1s-1-0.4-1-1V74.1c0-0.6,0.4-1,1-1s1,0.4,1,1V85.4z"/>
<path class="st0" d="M146.3,104.3c0,0.6-0.4,1-1,1s-1-0.4-1-1V83.7c0-0.6,0.4-1,1-1s1,0.4,1,1V104.3z"/>
<path class="st0" d="M150.3,94.3c0,0.6-0.4,1-1,1s-1-0.4-1-1V79.2c0-0.6,0.4-1,1-1s1,0.4,1,1V94.3z"/>
<path class="st0" d="M154.4,79.1c0,0.6-0.4,1-1,1s-1-0.4-1-1v-3.9c0-0.6,0.4-1,1-1s1,0.4,1,1V79.1z"/>
<path class="st0" d="M149.7,69.2c-3.5,0-5.5-1.2-6.5-3.9l-11.9-31.7h3.9l11.2,29.6c0.6,1.5,1.8,2.3,3.4,2.3c1.1,0,2.5-0.4,3.4-2.3
	l11.7-29.6h3.9l-12.5,31.6C155,68.1,153.2,69.2,149.7,69.2z"/>
<path class="st0" d="M158.4,89.2c0,0.6-0.4,1-1,1s-1-0.4-1-1V75.9c0-0.6,0.4-1,1-1s1,0.4,1,1V89.2z"/>
<path class="st0" d="M162.5,88.1c0,0.6-0.4,1-1,1s-1-0.4-1-1v-9.9c0-0.6,0.4-1,1-1s1,0.4,1,1V88.1z"/>
<path class="st0" d="M243.1,75.1h-76.6v8.9c0,0.6-0.4,1-1,1s-1-0.4-1-1v-9.9c0-0.6,0.4-1,1-1h77.6c0.6,0,1,0.4,1,1
	S243.7,75.1,243.1,75.1z"/>
<path class="st0" d="M37,63.3c-0.8,0-1.4-0.4-1.8-1.2L24.8,39.5c-1.2-3.4-3.3-6.9-9.1-6.9c-5.5,0-8.7,3-8.7,8.2v28.9h7.2V41.1
	c0-1,0.6-1.6,1.7-1.6c0.9,0,1.4,0.3,1.8,1.2L28,63.5c1.8,4.8,4.5,6.9,9.2,6.9c5.5,0,8.7-3,8.7-8.3V33.2h-7.3v28.6
	C38.6,62.8,38,63.3,37,63.3z"/>
<path class="st0" d="M52,59.6c0,6.5,4.5,10.2,12.3,10.2h18.5v-7.2H64.3c-3.2,0-4.9-1.3-4.9-4c0-2.6,1.6-3.8,4.9-3.8h18.1v-6.6h-18
	c-4.4,0-4.9-2.1-4.9-3.7c0-2.6,1.6-4,4.9-4h18.3v-7.2H64.5c-8,0-12.4,3.6-12.4,10.2c0,3.7,1.5,6.4,4.3,8C53.5,53,52,55.8,52,59.6z"
	/>
<polygon class="st0" points="127.2,33.2 118.2,33.2 107,46.1 96.3,33.2 87.4,33.2 102.3,50.7 85.9,69.7 94.9,69.7 106.8,55.9 
	118.4,69.7 127.3,69.7 111.5,51.2 "/>
<path class="st0" d="M164.8,33.7L153,63.3c-0.8,1.9-2.3,2.3-3.4,2.3c-1.6,0-2.8-0.8-3.4-2.3l-11.2-29.6h-3.9l11.9,31.7
	c1,2.7,3,3.9,6.5,3.9c3.5,0,5.4-1.1,6.5-3.9l12.5-31.6H164.8z"/>
<g>
	<path class="st0" d="M190.8,33.7h-5.3c-10.5,0-15.9,6-15.9,17.8c0,11.9,5.2,17.7,15.9,17.7h5.3c10.7,0,15.9-5.8,15.9-17.7
		C206.6,39.7,201.3,33.7,190.8,33.7z M190.8,65.7h-5.3c-8.4,0-12.4-4.5-12.4-14.2c0-9.8,3.9-14.3,12.4-14.3h5.3
		c8.4,0,12.3,4.5,12.3,14.3C203.1,61.2,199.2,65.7,190.8,65.7z"/>
</g>
<path class="st0" d="M216.2,57.2l21.1-9c3.6-1.6,5.2-3.9,5.2-7.6c0-4.6-2.6-6.9-7.8-6.9h-23.8v3.5h23.4c2.7,0,4.6,1.7,4.6,4.2
	c0,2-1.1,3.6-3,4.4l-21,9c-3.6,1.5-5.3,3.9-5.3,7.6c0,4.6,2.5,6.9,7.7,6.9h24.4v-3.5h-23.9c-2.7,0-4.5-1.7-4.5-4.2
	C213.2,59.6,214.3,58,216.2,57.2z"/>
<path class="st0" d="M84.5,73.1H6.9c-0.6,0-1,0.4-1,1s0.4,1,1,1h76.6v8.9c0,0.6,0.4,1,1,1s1-0.4,1-1v-9.9
	C85.5,73.6,85,73.1,84.5,73.1z"/>
<path class="st0" d="M88.5,81.6c-0.6,0-1,0.4-1,1v5.5c0,0.6,0.4,1,1,1s1-0.4,1-1v-5.5C89.5,82.1,89.1,81.6,88.5,81.6z"/>
<path class="st0" d="M92.6,74.8c-0.6,0-1,0.4-1,1v3.7c0,0.6,0.4,1,1,1s1-0.4,1-1v-3.7C93.6,75.3,93.1,74.8,92.6,74.8z"/>
<path class="st0" d="M96.6,84.6c-0.6,0-1,0.4-1,1v10.7c0,0.6,0.4,1,1,1c0.6,0,1-0.4,1-1V85.6C97.6,85,97.2,84.6,96.6,84.6z"/>
<path class="st0" d="M100.7,95.7c-0.6,0-1,0.4-1,1v3.6c0,0.6,0.4,1,1,1s1-0.4,1-1v-3.6C101.7,96.2,101.2,95.7,100.7,95.7z"/>
<path class="st0" d="M100.7,73.1c-0.6,0-1,0.4-1,1v9.6c0,0.6,0.4,1,1,1s1-0.4,1-1v-9.6C101.7,73.6,101.2,73.1,100.7,73.1z"/>
<path class="st0" d="M104.7,78.2c-0.6,0-1,0.4-1,1v13.9v11.2c0,0.6,0.4,1,1,1s1-0.4,1-1V93.1V79.2C105.7,78.6,105.3,78.2,104.7,78.2
	z"/>
<path class="st0" d="M108.8,93.9c-0.6,0-1,0.4-1,1v13.5c0,0.6,0.4,1,1,1s1-0.4,1-1V94.9C109.8,94.4,109.3,93.9,108.8,93.9z"/>
<path class="st0" d="M108.8,76.2c-0.6,0-1,0.4-1,1V86c0,0.6,0.4,1,1,1s1-0.4,1-1v-8.9C109.8,76.6,109.3,76.2,108.8,76.2z"/>
<path class="st0" d="M112.8,88c-0.6,0-1,0.4-1,1v23.4c0,0.6,0.4,1,1,1s1-0.4,1-1V89C113.8,88.5,113.4,88,112.8,88z"/>
<path class="st0" d="M116.9,77.2c-0.6,0-1,0.4-1,1v13.3c0,0.6,0.4,1,1,1s1-0.4,1-1V78.2C117.9,77.6,117.4,77.2,116.9,77.2z"/>
<path class="st0" d="M120.9,79.2c-0.6,0-1,0.4-1,1v26.5c0,0.6,0.4,1,1,1s1-0.4,1-1V80.2C121.9,79.6,121.5,79.2,120.9,79.2z"/>
<path class="st0" d="M125,73.1c-0.6,0-1,0.4-1,1v50.5c0,0.6,0.4,1,1,1s1-0.4,1-1V74.1C126,73.6,125.5,73.1,125,73.1z"/>
<path class="st0" d="M129,103.8c-0.6,0-1,0.4-1,1v15.8c0,0.6,0.4,1,1,1s1-0.4,1-1v-15.8C130,104.2,129.6,103.8,129,103.8z"/>
<path class="st0" d="M129,73.1c-0.6,0-1,0.4-1,1v19.8c0,0.6,0.4,1,1,1s1-0.4,1-1V74.1C130,73.6,129.6,73.1,129,73.1z"/>
<path class="st0" d="M133.1,73.1c-0.6,0-1,0.4-1,1v26.6c0,0.6,0.4,1,1,1s1-0.4,1-1V74.1C134.1,73.6,133.6,73.1,133.1,73.1z"/>
<path class="st0" d="M137.1,84.6c-0.6,0-1,0.4-1,1v26.8c0,0.6,0.4,1,1,1s1-0.4,1-1V85.6C138.1,85.1,137.7,84.6,137.1,84.6z"/>
<path class="st0" d="M141.2,88.1c-0.6,0-1,0.4-1,1V96v12.4c0,0.6,0.4,1,1,1s1-0.4,1-1V96v-6.9C142.2,88.6,141.8,88.1,141.2,88.1z"/>
<path class="st0" d="M141.2,73.1c-0.6,0-1,0.4-1,1v11.2c0,0.6,0.4,1,1,1s1-0.4,1-1V74.1C142.2,73.6,141.8,73.1,141.2,73.1z"/>
<path class="st0" d="M145.3,82.7c-0.6,0-1,0.4-1,1v20.7c0,0.6,0.4,1,1,1s1-0.4,1-1V83.7C146.3,83.1,145.8,82.7,145.3,82.7z"/>
<path class="st0" d="M149.3,78.2c-0.6,0-1,0.4-1,1v15.2c0,0.6,0.4,1,1,1s1-0.4,1-1V79.2C150.3,78.6,149.9,78.2,149.3,78.2z"/>
<path class="st0" d="M153.4,74.1c-0.6,0-1,0.4-1,1v3.9c0,0.6,0.4,1,1,1s1-0.4,1-1v-3.9C154.4,74.6,153.9,74.1,153.4,74.1z"/>
<path class="st0" d="M157.4,74.9c-0.6,0-1,0.4-1,1v13.3c0,0.6,0.4,1,1,1s1-0.4,1-1V75.9C158.4,75.4,158,74.9,157.4,74.9z"/>
<path class="st0" d="M161.5,77.2c-0.6,0-1,0.4-1,1v9.9c0,0.6,0.4,1,1,1s1-0.4,1-1v-9.9C162.5,77.6,162,77.2,161.5,77.2z"/>
<path class="st0" d="M243.1,73.1h-77.6c-0.6,0-1,0.4-1,1v9.9c0,0.6,0.4,1,1,1s1-0.4,1-1v-8.9h76.6c0.6,0,1-0.4,1-1
	S243.7,73.1,243.1,73.1z"/>
<path class="st0" d="M7.9,27.2h234.3c0.6,0,1-0.4,1-1s-0.4-1-1-1H7.9c-0.6,0-1,0.4-1,1S7.4,27.2,7.9,27.2z"/>
</svg>
